<svg width="46" height="46" fill="none" xmlns="http://www.w3.org/2000/svg"><g clip-path="url(#clip0)" fill="#F2994A"><path d="M11.428 22.212c0-1.519.255-3.078.753-4.653-3.632-1.377-7.647-1.547-10.26-1.466L11.968 26.14a15.09 15.09 0 01-.54-3.928zm22.604 3.928l10.047-10.047c-2.612-.081-6.628.09-10.26 1.466.498 1.575.753 3.134.753 4.653 0 1.285-.182 2.6-.54 3.927zM.016 18c-.12 3.913.325 10.971 4.53 15.177 4.099 4.098 10.874 4.63 14.84 4.543C18.606 36.964.016 18 .016 18zm45.967 0S27.398 36.962 26.619 37.717c3.97.083 10.749-.453 14.835-4.539 4.205-4.206 4.65-11.264 4.53-15.176zm-14.107 4.212c0-5.964-4.677-11.263-7.528-13.94v27.552l3.433-3.434c2.148-2.77 4.095-6.34 4.095-10.178zm-17.752 0c0 3.829 1.928 7.383 4.062 10.146l3.466 3.465V8.277c-2.851 2.682-7.528 7.988-7.528 13.935z"/></g><defs><clipPath id="clip0"><path fill="#fff" d="M0 0h46v46H0z"/></clipPath></defs></svg>