<svg xmlns="http://www.w3.org/2000/svg"><symbol id="facebook" viewBox="0 0 36 36"><circle cx="18" cy="18" r="18" fill="CurrentColor"/><path fill="#fff" d="M19.125 15.188v-2.25c0-.622.504-1.126 1.125-1.126h1.125V9h-2.25a3.375 3.375 0 00-3.375 3.375v2.813H13.5V18h2.25v9h3.375v-9h2.25l1.125-2.813h-3.375z"/></symbol><symbol id="instagram" viewBox="0 0 36 36"><circle cx="18" cy="18" r="18" fill="CurrentColor"/><path fill="#fff" d="M26.983 14.292c-.043-.956-.197-1.614-.419-2.184a4.392 4.392 0 00-1.04-1.596 4.43 4.43 0 00-1.594-1.037c-.573-.222-1.227-.377-2.183-.419-.964-.045-1.27-.056-3.713-.056-2.444 0-2.75.01-3.71.053-.957.042-1.614.197-2.184.418a4.391 4.391 0 00-1.596 1.041c-.457.45-.812.995-1.038 1.593-.221.573-.376 1.227-.418 2.184-.046.963-.056 1.269-.056 3.713s.01 2.75.052 3.71c.043.956.197 1.613.419 2.183a4.438 4.438 0 001.04 1.596c.45.458.996.813 1.594 1.038.573.221 1.227.376 2.183.418.96.043 1.266.053 3.71.053s2.75-.01 3.71-.053c.956-.042 1.614-.197 2.183-.418a4.604 4.604 0 002.634-2.634c.222-.573.376-1.227.419-2.183.042-.96.052-1.266.052-3.71s-.003-2.75-.045-3.71zm-1.621 7.35c-.04.878-.187 1.353-.31 1.67a2.986 2.986 0 01-1.709 1.708c-.316.123-.794.271-1.67.31-.95.042-1.234.052-3.636.052s-2.69-.01-3.636-.052c-.879-.039-1.354-.187-1.67-.31a2.77 2.77 0 01-1.034-.671 2.798 2.798 0 01-.671-1.034c-.124-.317-.271-.795-.31-1.67-.042-.95-.053-1.235-.053-3.636 0-2.402.01-2.69.053-3.636.039-.88.186-1.354.31-1.67.144-.39.372-.746.675-1.034a2.794 2.794 0 011.033-.672c.317-.123.795-.27 1.67-.31.95-.041 1.235-.052 3.637-.052 2.405 0 2.69.01 3.635.053.88.039 1.354.186 1.67.31.39.143.746.372 1.034.67.3.293.528.644.672 1.035.123.316.27.794.31 1.67.042.95.052 1.234.052 3.636 0 2.401-.01 2.683-.052 3.632zm-7.329-8.264a4.625 4.625 0 000 9.248 4.625 4.625 0 000-9.248zm0 7.623a3 3 0 11.001-6 3 3 0 010 6zm5.887-7.806a1.08 1.08 0 11-2.16 0 1.08 1.08 0 012.16 0z"/></symbol><symbol id="call" viewBox="0 0 24 24"><circle cx="12" cy="12" r="12" fill="#fff"/><path fill="#9B51E0" d="M19.07 4.928C15.164 1.023 8.833 1.024 4.928 4.93c-3.905 3.906-3.904 10.238.002 14.142 3.906 3.905 10.238 3.904 14.142-.002a10 10 0 00-.002-14.142zM17.145 15.93l-.002.001v-.003l-.506.503a2.666 2.666 0 01-2.517.72 8.863 8.863 0 01-2.573-1.153 11.89 11.89 0 01-2.03-1.637A11.984 11.984 0 018 12.521a9.332 9.332 0 01-1.14-2.307 2.667 2.667 0 01.667-2.723l.593-.593a.423.423 0 01.599-.001h.001l1.873 1.874a.423.423 0 01.002.599l-.002.001-1.1 1.1a.897.897 0 00-.093 1.167c.398.546.838 1.06 1.317 1.537a12.777 12.777 0 001.733 1.456.903.903 0 001.153-.1l1.064-1.08a.423.423 0 01.598-.001l.002.001 1.876 1.88a.423.423 0 01.002.599z"/></symbol><symbol id="plus" viewBox="0 0 50 50"><path fill="CurrentColor" d="M25 0C11.214 0 0 11.214 0 25s11.214 25 25 25 25-11.216 25-25S38.786 0 25 0zm0 46.127C13.352 46.127 3.873 36.65 3.873 25c0-11.65 9.48-21.127 21.127-21.127 11.648 0 21.127 9.477 21.127 21.127 0 11.65-9.477 21.127-21.127 21.127zm9.682-23.238h-7.746v-7.746a1.936 1.936 0 10-3.873 0v7.746h-7.746a1.936 1.936 0 100 3.873h7.746v7.746a1.936 1.936 0 103.873 0v-7.746h7.746a1.936 1.936 0 100-3.873z"/></symbol><symbol id="culumns1" viewBox="0 0 120 120"><circle cx="60" cy="60" r="60" fill="#fff"/><path d="M72.911 67.627a1 1 0 10-1.866.716c.912 2.38.978 4.198.18 4.998-.968.966-3.378.664-6.448-.806a42.755 42.755 0 01-11.065-8.256c-7.83-7.831-11.06-15.515-9.063-17.513a2.73 2.73 0 012.261-.528 1 1 0 00.194-1.99 4.603 4.603 0 00-3.868 1.1c-3.663 3.662 1.936 13.213 9.062 20.34a44.707 44.707 0 0011.616 8.646 19.69 19.69 0 002.41.964l-7.101 2.693A28.294 28.294 0 0141.33 55.956a1 1 0 00-1.976.31c.157 1 .367 1.999.624 2.977a30.343 30.343 0 0016.544 19.77l-11.69 4.423a.98.98 0 00-.2-.238 13.928 13.928 0 01-5.158-9.679l-.463-5.617a.988.988 0 00-1.052-.919l-.031.003a1 1 0 00-.917 1.082l.472 5.615a15.924 15.924 0 005.29 10.53l-8.34 3.158 1.5-6.154a1 1 0 10-1.944-.474l-1.95 7.997a1 1 0 001.326 1.173L70.35 75.918a.922.922 0 00.166-.104 3.882 3.882 0 002.122-1.058c.99-.991 1.844-3.033.273-7.129z" fill="#F2994A"/><path d="M82.344 65.05a32.917 32.917 0 00-16.936-1.645l-3.572.6a1 1 0 00.33 1.97l3.571-.594a30.896 30.896 0 0115.906 1.546c.112.04.231.06.35.058a1 1 0 00.352-1.936zm3.554-15.488a1 1 0 00-1.332-.472l-20.992 9.996a1 1 0 00.86 1.805l20.992-9.996a1 1 0 00.472-1.333zm-29.61-12.778a1 1 0 10-1.952.434 27.963 27.963 0 01-1.492 16.903l-1.453 3.487a1 1 0 00.92 1.38 1 1 0 00.923-.614l1.454-3.484a29.948 29.948 0 001.6-18.106zm30.704 29.202a2.999 2.999 0 100 5.998 2.999 2.999 0 000-5.998zm0 3.998a1 1 0 110-1.999 1 1 0 010 2zM63.001 37.997a2.999 2.999 0 100 5.997 2.999 2.999 0 000-5.997zm0 3.998a1 1 0 110-1.999 1 1 0 010 2zm-8.996-7.997a2 2 0 100-3.998 2 2 0 000 3.998zm27.989 1a1 1 0 00-1 1v1a1 1 0 002 0v-1a1 1 0 00-1-1zm0-4.998a1 1 0 00-1 1v1a1 1 0 002 0v-1a1 1 0 00-1-1zm2.998 2.999h-1a1 1 0 000 1.999h1a1 1 0 000-2zm-4.998 0h-1a1 1 0 000 1.999h1a1 1 0 000-2zm-4.998 7.976h-5.019a1 1 0 00-1 1v5.018a1 1 0 001 1h5.02a1 1 0 00.999-1v-5.019a1 1 0 00-1-1zm-1 5.019h-3.02v-3.02h3.02v3.02zm-6.282 3.328a1 1 0 00-1.383-.072l-9.997 8.996a1 1 0 001.338 1.485l9.996-8.996a1 1 0 00.046-1.413zm18.278 3.669a1 1 0 00-1 1v1a1 1 0 002 0v-1a1 1 0 00-1-1zm4.241-.171l-.707-.708a1 1 0 00-1.413 1.414l.707.707a1 1 0 001.413-1.414zm.757-3.827h-1a1 1 0 000 1.999h1a1 1 0 000-2zm-.78-3.241a1 1 0 00-1.39 0l-.706.706a1 1 0 001.413 1.414l.707-.707a1 1 0 00-.025-1.413zm-4.218-1.757a1 1 0 00-1 1v.999a1 1 0 002 0v-1a1 1 0 00-1-1zm-2.121 2.464l-.707-.707a1 1 0 00-1.413 1.413l.706.707a1 1 0 001.414-1.413zM43.96 34.322a1 1 0 00-.807-.68l-2.934-.426-1.309-2.658a1.04 1.04 0 00-1.793 0l-1.314 2.658-2.934.426a1 1 0 00-.556 1.705l2.122 2.069-.5 2.922a1 1 0 001.452 1.057l2.624-1.383 2.624 1.38a1 1 0 001.45-1.054l-.5-2.922 2.123-2.07a1 1 0 00.251-1.024zm-4.15 2.03a1 1 0 00-.288.883l.248 1.444-1.295-.682a1 1 0 00-.93 0l-1.299.681.248-1.444a1 1 0 00-.283-.883l-1.05-1.022 1.45-.211a1 1 0 00.753-.547l.647-1.312.647 1.312a1 1 0 00.752.547l1.45.21-1.05 1.023zm48.803 43.753h-.004l-.412-.617a15.085 15.085 0 00-10.037-6.49 1 1 0 00-.33 1.97 13.078 13.078 0 017.628 4.253 5.898 5.898 0 00-3.998 2.746 3.998 3.998 0 106.982 3.898 5.797 5.797 0 00.649-2.566 4.884 4.884 0 01.219 5.191 1 1 0 101.745.974 6.98 6.98 0 00-2.442-9.359zm-1.914 4.785a2 2 0 01-3.501-1.932l.009-.017a3.746 3.746 0 012.707-1.761c.174-.005.346.035.5.116.843.47.888 2.512.285 3.594z" fill="#F2994A"/></symbol><symbol id="culumns2" viewBox="0 0 120 120"><circle cx="60" cy="60" r="60" fill="#fff"/><path d="M66.015 67.978c0 5.52 4.474 9.993 9.993 9.993s9.993-4.474 9.993-9.993-4.474-9.993-9.993-9.993c-5.517.006-9.987 4.477-9.993 9.993zm9.993-7.994a7.994 7.994 0 11-7.995 7.994 8.003 8.003 0 017.995-7.994zm-5.71 27.981h11.421v1.998H70.298v-1.998zm-4.283-3.998H86v1.999H66.015v-1.999zm-21.985 0h1.999v1.999h-2v-1.999zm-5.996 1.999h1.998v1.998h-1.998v-1.998z" fill="#F2994A"/><path d="M44.13 78.344a75.685 75.685 0 009.614-29.58l9.294 9.239a.997.997 0 001.593-.262 9.756 9.756 0 00-1.83-11.275l-.818-.818h7.03a.999.999 0 00.948-1.316 9.757 9.757 0 00-9.268-6.678h-1.3l4.991-5.02a1 1 0 00-.261-1.599 9.759 9.759 0 00-11.282 1.83l-.954.954a9.78 9.78 0 00-.866 1 9.62 9.62 0 00-.859-1l-.954-.954a9.754 9.754 0 00-11.274-1.83 1 1 0 00-.262 1.6l4.996 5.019h-1.312a9.757 9.757 0 00-9.268 6.678 1 1 0 00.949 1.316h7.022l-.817.818a9.757 9.757 0 00-1.831 11.275 1 1 0 001.599.262l8.654-8.603a54.163 54.163 0 01-10.448 26.41 37.282 37.282 0 00-4.079-.832l-.624-.063-.2 1.99.582.057c1 .143 1.992.345 2.98.574-.2.25-.4.505-.606.752L36.8 79.57a56.262 56.262 0 0013.074-32.369l1.15-1.143.861.857A73.065 73.065 0 0139.214 82.39l1.636 1.146a67.488 67.488 0 002.262-3.472 35.445 35.445 0 0112.092 9.473l1.546-1.266a37.33 37.33 0 00-6.637-6.302h41.884v-2H47.153a36.85 36.85 0 00-3.024-1.625zm19.24-22.83L52.812 45.016a7.708 7.708 0 017.628 1.908l.955.955a7.759 7.759 0 011.975 7.635zm4.117-11.864h-8.274a9.746 9.746 0 00-6.19-.739 7.75 7.75 0 016.317-3.258h1.35a7.759 7.759 0 016.797 3.997zm-14.19-8.417l.955-.955a7.765 7.765 0 017.638-1.975l-5.924 5.958a9.747 9.747 0 00-4.717 3.703 7.564 7.564 0 012.051-6.731h-.003zm-5.505-.955l.954.955a7.63 7.63 0 011.15 1.513 9.508 9.508 0 00-.764 3.322 9.749 9.749 0 00-3.048-1.807l-5.925-5.959a7.761 7.761 0 017.636 1.976h-.003zm-6.439 5.375h1.35a7.752 7.752 0 016.323 3.257 9.75 9.75 0 00-6.187.74h-8.277a7.76 7.76 0 016.794-3.997h-.003zm-2.674 15.86a7.76 7.76 0 011.976-7.634l.954-.955a7.638 7.638 0 015.419-2.23c.749 0 1.495.107 2.214.318L38.68 55.514z" fill="#F2994A"/></symbol><symbol id="culumns3" viewBox="0 0 120 120"><circle cx="60" cy="60" r="60" fill="#fff"/><path d="M84.184 34.799a.986.986 0 10-1.966.148c.21 2.785-.088 6.847-2.702 10.384-2.618 3.541-6.332 4.773-8.327 5.435-2.954.98-5.666 1.235-8.181 1.17.22-.476.344-1.005.344-1.563a3.738 3.738 0 00-2.804-3.614v-1.286h5.265a3.62 3.62 0 003.616-3.615v-1.052a.986.986 0 00-.986-.986h-4.799l1.973-6.364a1.876 1.876 0 00-.284-1.685 1.876 1.876 0 00-1.525-.77h-5.232a.986.986 0 100 1.971h5.126L61.58 39.82h-4.066l-2.905-8.164a.987.987 0 00-1.858.66l2.67 7.504H50.76a.986.986 0 00-.986.986v1.052a3.62 3.62 0 003.615 3.615h5.187v1.32a3.736 3.736 0 00-2.596 4.38c-3.916-.553-7.321-.821-10.13 1.777-.764.708-2.569 2.66-2.81 5.505-.017.193-.36 4.745 3.325 7.214 1.468.983 2.99 1.256 4.226 1.256a8.65 8.65 0 001.322-.103 3.634 3.634 0 001.604 1.944c-3.647 2.024-6.122 5.916-6.122 10.375 0 2.207.615 4.35 1.755 6.206h-2.774a4.622 4.622 0 00-4.617 4.617v.05c0 .545.442.986.986.986h33.712a.986.986 0 00.986-.986v-.05a4.622 4.622 0 00-4.616-4.617h-21.27a9.875 9.875 0 01-2.19-6.206c0-5.452 4.436-9.887 9.887-9.887 5.452 0 9.887 4.435 9.887 9.887 0 1.038-.16 2.06-.475 3.038a.986.986 0 001.877.605c.379-1.174.57-2.4.57-3.643 0-4.326-2.328-8.117-5.796-10.189a3.62 3.62 0 002.173-3.314 3.622 3.622 0 00-2.562-3.458 5.402 5.402 0 00-2.6-3.819 3.715 3.715 0 00.403-4.465c2.753.09 5.79-.167 9.079-1.258 2.046-.679 6.302-2.091 9.291-6.135 3.132-4.236 3.276-9.151 3.083-11.704zm-33.096 52.52h21.739a2.65 2.65 0 012.474 1.709H43.902a2.649 2.649 0 012.474-1.71h4.712zM53.389 43.5a1.645 1.645 0 01-1.643-1.643v-.066h15.71v.066c0 .906-.736 1.643-1.643 1.643H53.39zm5.988 5.133a.987.987 0 00.417-.01 1.755 1.755 0 01.867 3.164 57.503 57.503 0 01-2.384-.287 1.75 1.75 0 01-.413-1.129c0-.886.66-1.618 1.513-1.738zm.185 5.468c.97 0 1.758.789 1.758 1.758a1.76 1.76 0 01-1.758 1.758 1.76 1.76 0 01-1.757-1.758c0-.97.788-1.758 1.757-1.758zm-7.759 10.736c-.945.173-2.716.28-4.34-.808-2.73-1.83-2.462-5.372-2.459-5.408.184-2.158 1.59-3.673 2.185-4.224 2.347-2.172 5.338-1.737 9.477-1.135l.196.029a3.716 3.716 0 00-1.03 2.568c0 .976.377 1.865.993 2.53a5.402 5.402 0 00-2.55 3.79 3.628 3.628 0 00-2.472 2.658zm12.071-.843c.906 0 1.644.737 1.644 1.643s-.738 1.644-1.644 1.644h-8.546a1.645 1.645 0 01-1.643-1.644c0-.906.737-1.643 1.643-1.643h8.546zm-1-1.972H56.33a3.424 3.424 0 013.27-2.432 3.424 3.424 0 013.273 2.433z" fill="#F2994A"/></symbol><symbol id="tile1" viewBox="0 0 74 74"><circle cx="37" cy="37" r="37" fill="#fff"/><path d="M47.995 25.972a.862.862 0 00-1.223 0 .866.866 0 001.223 1.224.86.86 0 00.253-.612.863.863 0 00-.253-.612zM33.672 38.67c-.234-.235-.455-.348-.663-.341-.209.007-.416.113-.622.32l-.696.695 1.307 1.306.695-.695c.207-.206.313-.413.32-.622.007-.208-.106-.43-.34-.664z" fill="#F2994A"/><path d="M56.942 32.44L55.036 21.9a3.658 3.658 0 00-2.936-2.936l-10.54-1.906a3.643 3.643 0 00-3.224 1.009l-20.27 20.269A3.618 3.618 0 0017 40.91c0 .973.379 1.887 1.067 2.575l12.447 12.447A3.618 3.618 0 0033.089 57c.973 0 1.887-.38 2.575-1.067l20.27-20.269a3.644 3.644 0 001.008-3.223zM32.004 47.215a1.13 1.13 0 01-.298.474c-.15.15-.308.25-.474.299-.167.05-.303.02-.411-.088l-4.46-4.46a.393.393 0 01-.11-.39.88.88 0 01.25-.425l2.437-2.438a.382.382 0 01.386-.105c.15.037.288.12.415.246a.9.9 0 01.256.432.385.385 0 01-.102.383l-1.819 1.819 1.187 1.187 1.06-1.06a.395.395 0 01.37-.116.73.73 0 01.39.214.718.718 0 01.203.372.392.392 0 01-.12.373l-1.06 1.06 1.812 1.813c.108.107.137.244.088.41zm5.97-6.076c-.025.27-.12.486-.284.65-.164.164-.348.213-.555.148l-2.83-.907-.464.464 1.693 1.693c.108.108.137.245.088.41a1.13 1.13 0 01-.299.475c-.15.15-.308.25-.474.299-.166.049-.303.02-.41-.088l-4.468-4.468a.457.457 0 01-.137-.327.456.456 0 01.144-.34l1.454-1.454c1.152-1.152 2.23-1.227 3.231-.225.73.73.923 1.49.576 2.276l2.41.695a.3.3 0 01.161.092c.136.136.19.338.165.607zm3.882-3.6l-2.5 2.5a.881.881 0 01-.426.25.393.393 0 01-.39-.109l-4.46-4.46a.393.393 0 01-.109-.39.881.881 0 01.25-.425l2.5-2.5a.382.382 0 01.386-.106.89.89 0 01.415.246.9.9 0 01.256.432.386.386 0 01-.102.383l-1.882 1.882 1.187 1.188 1.054-1.054a.395.395 0 01.369-.116.73.73 0 01.39.214.717.717 0 01.203.372.392.392 0 01-.12.373l-1.053 1.053 1.194 1.195 1.883-1.883a.386.386 0 01.382-.102.89.89 0 01.432.257.892.892 0 01.246.414.382.382 0 01-.105.386zm3.786-3.786l-2.5 2.501a.88.88 0 01-.426.25.393.393 0 01-.39-.11l-4.46-4.46a.393.393 0 01-.11-.39.881.881 0 01.25-.425l2.5-2.5a.382.382 0 01.387-.106.89.89 0 01.415.246c.135.136.22.28.256.432a.385.385 0 01-.102.383l-1.882 1.882 1.187 1.188 1.053-1.054a.395.395 0 01.37-.116.73.73 0 01.389.214.719.719 0 01.204.372.392.392 0 01-.12.373l-1.053 1.054 1.194 1.194 1.882-1.883a.386.386 0 01.383-.102.9.9 0 01.432.257.892.892 0 01.246.414.38.38 0 01-.105.386zm4.012-4.898a3.2 3.2 0 01-2.27.94 3.2 3.2 0 01-2.27-.94 3.214 3.214 0 010-4.54 3.214 3.214 0 014.54 0 3.19 3.19 0 01.94 2.27 3.19 3.19 0 01-.94 2.27z" fill="#F2994A"/></symbol><symbol id="tile2" viewBox="0 0 74 74"><circle cx="37" cy="37" r="37" fill="#fff"/><path d="M57.06 36.105a9.08 9.08 0 01-.402-.09c-1.375-.358-2.002-.554-2.466-1.45l-1.757-3.557c-.565-1.09-2.023-1.977-3.25-1.977h-3.129v-4.108c0-.737-.6-1.337-1.337-1.337l-21.788.022c-.718 0-1.26.57-1.26 1.327v1.214h-5.58A2.093 2.093 0 0014 28.239c0 1.153.938 2.09 2.09 2.09h5.582v2.004h-3.655c-1.152 0-2.09.938-2.09 2.09 0 1.153.938 2.09 2.09 2.09h3.655v2.004h-1.728c-1.152 0-2.09.938-2.09 2.09 0 1.153.938 2.09 2.09 2.09h1.728v2.096c0 .738.6 1.338 1.337 1.338h2.267a5.017 5.017 0 004.956 4.283 5.017 5.017 0 004.957-4.283h9.172c.048 0 .097-.003.145-.006a5.017 5.017 0 004.958 4.289 5.017 5.017 0 004.957-4.283h3.255A2.327 2.327 0 0060 43.807v-3.943c0-3.142-1.77-3.514-2.94-3.76zm-7.596 7.479c1.004 0 1.822.817 1.822 1.82a1.823 1.823 0 01-1.822 1.822 1.823 1.823 0 01-1.821-1.821c0-1.004.817-1.821 1.82-1.821zm-3.408-7.762v-4.85h2.39c.92 0 2.053.689 2.474 1.5l1.563 3.166c.033.064.068.125.103.184h-6.53zm-14.002 9.583a1.823 1.823 0 01-1.822 1.82 1.823 1.823 0 01-1.82-1.82 1.822 1.822 0 013.642-.001z" fill="#F2994A"/></symbol><symbol id="tile3" viewBox="0 0 74 74"><circle cx="37" cy="37" r="37" fill="#fff"/><path d="M53.318 32.063h-.85a16.151 16.151 0 00-1.04-2.508l.601-.602a3.682 3.682 0 000-5.208l-1.774-1.774a3.682 3.682 0 00-5.208 0l-.602.601a16.155 16.155 0 00-2.508-1.04v-.85A3.687 3.687 0 0038.255 17h-2.51a3.687 3.687 0 00-3.682 3.682v.85c-.864.275-1.702.623-2.508 1.04l-.601-.6a3.682 3.682 0 00-5.209-.001l-1.774 1.774a3.682 3.682 0 000 5.208l.601.602a16.147 16.147 0 00-1.04 2.508h-.85A3.686 3.686 0 0017 35.745v2.51a3.687 3.687 0 003.682 3.682h.85c.275.864.623 1.702 1.04 2.508l-.601.602a3.682 3.682 0 000 5.208l1.774 1.774a3.682 3.682 0 005.208 0l.602-.601c.806.416 1.644.765 2.508 1.04v.85A3.687 3.687 0 0035.745 57h2.51a3.687 3.687 0 003.683-3.682v-.85a16.145 16.145 0 002.507-1.04l.602.6a3.682 3.682 0 005.208.001l1.774-1.774a3.682 3.682 0 000-5.208l-.601-.602c.417-.806.765-1.644 1.04-2.508h.85A3.687 3.687 0 0057 38.255v-2.51a3.687 3.687 0 00-3.682-3.682zM37 45.703c-4.799 0-8.703-3.904-8.703-8.703 0-4.799 3.904-8.703 8.703-8.703 4.799 0 8.703 3.904 8.703 8.703 0 4.799-3.904 8.703-8.703 8.703z" fill="#F2994A"/></symbol><symbol id="tile4" viewBox="0 0 74 74"><circle cx="37" cy="37" r="37" fill="#fff"/><path d="M42.27 37.13a.866.866 0 00-.865.865v2.893c0 .477.388.865.865.865H54V37.13H42.27zm1.46 3.646a1.334 1.334 0 110-2.67 1.334 1.334 0 010 2.67z" fill="#F2994A"/><path d="M42.27 35.11H54v-4.953a2.889 2.889 0 00-2.885-2.886h-28.23A2.889 2.889 0 0020 30.157v20.589a2.889 2.889 0 002.885 2.885h28.23A2.889 2.889 0 0054 50.746v-6.973H42.27a2.889 2.889 0 01-2.885-2.885v-2.893a2.889 2.889 0 012.886-2.885zm5.98-14.741l-13.703 4.883h15.444l-1.74-4.883z" fill="#F2994A"/></symbol><symbol id="tile5" viewBox="0 0 74 74"><circle cx="37" cy="37" r="37" fill="#fff"/><path d="M40.826 33.611a12.341 12.341 0 014.807-1.575l.023-.038c2.757-4.775 1.115-10.903-3.66-13.66-4.775-2.757-10.903-1.115-13.66 3.66a10.006 10.006 0 00.024 10.037 12.34 12.34 0 014.81 1.576 12.29 12.29 0 013.782 3.384h.092a12.291 12.291 0 013.782-3.384zm-4.104-1.462l-.723.475a1.171 1.171 0 01-1.395-1.878 1.172 1.172 0 011.395-1.877l.723.475.724-.475a1.172 1.172 0 011.395 1.878 1.172 1.172 0 01-1.395 1.877l-.724-.475zm-1.033 7.211a9.938 9.938 0 00-3.691-3.719c-4.775-2.757-10.903-1.115-13.66 3.66-2.757 4.775-1.115 10.903 3.66 13.66a10.007 10.007 0 0013.66-3.66l.03-.054a12.254 12.254 0 01-.608-8.14 12.48 12.48 0 01.609-1.747zm-9.018 9.187a1.171 1.171 0 01-2.17.858l-.348-.693-.774.045a1.172 1.172 0 01-.342-2.308 1.171 1.171 0 012.17-.858l.348.692.774-.044a1.172 1.172 0 01.342 2.308zM52.83 33.432a13.45 13.45 0 004.112-10.953.976.976 0 00-.886-.885 13.461 13.461 0 00-7.377 1.438c.972 2.87.892 6.082-.41 8.996 1.611.17 3.16.653 4.56 1.404zm2.829 5.868c-2.757-4.774-8.885-6.416-13.66-3.66-4.776 2.758-6.418 8.886-3.66 13.66a10.006 10.006 0 0013.66 3.661c4.775-2.757 6.416-8.885 3.66-13.66zm-3.804 8.355a1.172 1.172 0 01-1.238 1.102l-.773-.045-.349.693a1.172 1.172 0 01-2.17-.858 1.171 1.171 0 01.342-2.308l.774.044.348-.693a1.172 1.172 0 012.17.858c.542.13.93.632.896 1.206z" fill="#F2994A"/></symbol><symbol id="tile6" viewBox="0 0 74 74"><circle cx="37" cy="37" r="37" fill="#fff"/><path d="M25.428 36.212c0-1.519.255-3.078.753-4.653-3.632-1.377-7.647-1.547-10.26-1.466l10.047 10.046a15.09 15.09 0 01-.54-3.927zm22.604 3.928l10.047-10.047c-2.612-.081-6.628.09-10.26 1.466.498 1.575.753 3.134.753 4.653 0 1.285-.182 2.6-.54 3.927zM14.016 32c-.12 3.913.325 10.971 4.53 15.177 4.099 4.098 10.874 4.63 14.84 4.543-.78-.756-19.37-19.72-19.37-19.72zm45.967 0S41.398 50.962 40.618 51.717c3.97.083 10.749-.453 14.835-4.539 4.205-4.206 4.65-11.264 4.53-15.176zm-14.107 4.212c0-5.964-4.677-11.263-7.528-13.94v27.552l3.433-3.434c2.148-2.77 4.095-6.34 4.095-10.178zm-17.751 0c0 3.829 1.927 7.383 4.062 10.146l3.465 3.465V22.277c-2.851 2.682-7.527 7.988-7.527 13.935z" fill="#F2994A"/></symbol><symbol id="tile7" viewBox="0 0 74 74"><circle cx="37" cy="37" r="37" fill="#fff"/><path d="M46.624 17H36.195c-.656 0-1.188.532-1.188 1.189v.825a4.015 4.015 0 002.819 3.828v1.777a3.59 3.59 0 002.395 3.38v1.118a8.06 8.06 0 012.377 0v-1.118a3.59 3.59 0 002.395-3.38v-1.777a4.015 4.015 0 002.82-3.828v-.825A1.19 1.19 0 0046.623 17zM30.16 30.962l-.015.014a4.73 4.73 0 00-1.371 3.71c.126 1.648.3 4.883.05 8.015-.351 4.403-1.334 6.308-2.097 7.132-.494.533-1.04.782-1.717.782-.707 0-2.859 0-3.09-5.605-.074-1.768.09-3.587.484-5.404l1.317-6.065.413.09a1.19 1.19 0 00.504-2.323l-.413-.09 2.111-9.721a1.189 1.189 0 00-2.323-.504l-2.11 9.72-.442-.095a1.189 1.189 0 00-.504 2.323l.44.095-1.316 6.066a23.716 23.716 0 00-.537 6.007c.096 2.318.502 4.078 1.241 5.381.93 1.637 2.39 2.502 4.225 2.502 1.347 0 2.511-.52 3.46-1.544 3.19-3.443 3.045-12.094 2.674-16.944a2.355 2.355 0 01.682-1.847l.014-.014a2.357 2.357 0 013.038-.246 8.093 8.093 0 011.661-1.717 4.736 4.736 0 00-6.38.282zm17.897 14.69a5.672 5.672 0 00.602-2.538c0-1.6-.679-3.117-1.89-4.278a5.654 5.654 0 00-5.36-7.43 5.654 5.654 0 00-5.358 7.43c-1.212 1.161-1.89 2.678-1.89 4.278 0 .881.205 1.742.601 2.538-1.548 1.45-2.417 3.358-2.417 5.37 0 2.175.992 4.2 2.794 5.702.213.179.483.276.76.276H46.92c.278 0 .548-.097.761-.276 1.802-1.502 2.794-3.527 2.794-5.702 0-2.012-.87-3.92-2.418-5.37z" fill="#F2994A"/></symbol><symbol id="tile8" viewBox="0 0 74 74"><circle cx="37" cy="37" r="37" fill="#fff"/><path d="M29.686 35.18c.47-.094.951.107 1.213.509l.34.52c1.365-3.58 4.708-6.62 4.887-6.782a1.176 1.176 0 011.547-.023c.174.148 3.955 3.388 5.31 7.103l6.6-1.38c1.536-7.675-2.895-17.275-14.964-20.095-.978-.228-1.771.799-1.308 1.684 1.365 2.609 2.309 4.864.97 7.331L31.355 20.4a1.176 1.176 0 00-1.763-.08c-2.071 2.151-5.546 6.542-5.546 11.786 0 1.429.185 2.799.55 4.09l5.09-1.015zm1.404 7.946h11.74V55H31.09V43.126zm-2.348-1.173c0-.647.525-1.171 1.174-1.171h1.508l-2.057-3.149-11.376 2.27-.982 7.842a1.17 1.17 0 00.244.872l4.696 5.937c.312.394.841.546 1.316.378l5.477-1.945V41.953z" fill="#F2994A"/><path d="M56.781 44.475l-5.265-7.357-9.394 1.964-.91 1.7h2.794c.648 0 1.174.524 1.174 1.172v11.61l1.654 1.21a1.176 1.176 0 001.543-.137l8.298-8.671a1.17 1.17 0 00.106-1.49zM36.933 31.916c-1.516 1.578-3.844 4.522-3.918 7.01l1.213 1.856h4.32l1.76-3.287c.093-.17.225-.313.382-.419-.84-2.108-2.697-4.123-3.757-5.16z" fill="#F2994A"/></symbol><symbol id="right" viewBox="0 0 14 24"><path d="M1.647 24L0 22.4l12.353-12L14 12 1.647 24z" fill="#F2994A"/><path d="M0 1.6L1.647 0 14 12l-1.647 1.6L0 1.6z" fill="#F2994A"/></symbol><symbol id="left" viewBox="0 0 14 24"><path d="M12.353 0L14 1.6l-12.353 12L0 12 12.353 0z" fill="#F2994A"/><path d="M14 22.4L12.353 24 0 12l1.647-1.6L14 22.4z" fill="#F2994A"/></symbol><symbol id="thanks" fill="none" viewBox="0 0 114 86"><path d="M0 38.37l18.345-18.524 47.172 47.63L47.172 86 0 38.37z" fill="#F2994A"/><path d="M95.655 0L114 18.523 47.172 86 28.828 67.477 95.655 0z" fill="#F2994A"/></symbol><symbol id="close" fill="none" viewBox="0 0 36 36"><path d="M.607 7.678L7.677.607 35.963 28.89l-7.071 7.07L.607 7.679z" fill="CurrentColor"/><path d="M28.89.607l7.072 7.07L7.678 35.963.607 28.89 28.89.607z" fill="CurrentColor"/></symbol><symbol id="chevron-left" viewBox="0 0 8 12" fill="none"><path d="M7.07 9.9l-1.413 1.414L0 5.657l1.414-1.414 5.657 5.656z" fill="#F2994A"/><path d="M1.414 7.07L0 5.658 5.657 0 7.07 1.414 1.414 7.071z" fill="#F2994A"/></symbol><symbol id="star" viewBox="0 0 8 9" fill="none"><path d="M5.1 4.5L8 6.24l-.538 1.045L4.538 5.47V9H3.462l.023-3.53L.561 7.285 0 6.24 2.924 4.5 0 2.76l.561-1.07 2.924 1.84L3.462 0h1.076v3.53l2.924-1.84L8 2.76 5.1 4.5z" fill="#F2994A"/></symbol><symbol id="why1" viewBox="0 0 74 74" fill="none"><path d="M48.624 17H38.195c-.656 0-1.188.532-1.188 1.189v.825a4.015 4.015 0 002.819 3.828v1.777a3.59 3.59 0 002.395 3.38v1.118a8.06 8.06 0 012.377 0v-1.118a3.59 3.59 0 002.395-3.38v-1.777a4.015 4.015 0 002.82-3.828v-.825A1.19 1.19 0 0048.623 17zM32.16 30.962l-.014.014a4.73 4.73 0 00-1.372 3.709c.127 1.649.3 4.883.05 8.016-.35 4.403-1.334 6.308-2.096 7.131-.495.534-1.04.783-1.717.783-.707 0-2.86 0-3.091-5.605a21.33 21.33 0 01.484-5.404l1.317-6.066.413.09a1.19 1.19 0 001.414-.91 1.189 1.189 0 00-.91-1.413l-.412-.09 2.11-9.72a1.189 1.189 0 10-2.322-.505l-2.111 9.721-.441-.096a1.189 1.189 0 00-.505 2.323l.441.096-1.317 6.065a23.72 23.72 0 00-.537 6.007c.096 2.319.503 4.08 1.242 5.382.93 1.637 2.39 2.502 4.224 2.502 1.348 0 2.512-.52 3.461-1.544 3.19-3.443 3.044-12.094 2.673-16.944a2.355 2.355 0 01.683-1.847l.013-.014a2.357 2.357 0 013.038-.247 8.09 8.09 0 011.662-1.716 4.737 4.737 0 00-6.38.282zm17.897 14.689a5.672 5.672 0 00.602-2.537c0-1.6-.679-3.117-1.89-4.279a5.654 5.654 0 00-5.36-7.43 5.654 5.654 0 00-5.358 7.43c-1.212 1.162-1.89 2.679-1.89 4.279 0 .881.205 1.742.601 2.537-1.548 1.451-2.417 3.36-2.417 5.37 0 2.175.992 4.2 2.794 5.703.213.178.483.276.76.276H48.92c.278 0 .548-.098.761-.276 1.802-1.502 2.794-3.527 2.794-5.702 0-2.012-.87-3.92-2.418-5.37z" fill="#9B51E0"/></symbol><symbol id="why2" viewBox="0 0 74 74" fill="none"><path d="M29.686 33.18c.47-.094.951.107 1.213.509l.34.52c1.365-3.58 4.708-6.62 4.887-6.782a1.176 1.176 0 011.547-.023c.174.148 3.955 3.388 5.31 7.103l6.6-1.38c1.536-7.675-2.895-17.275-14.964-20.095-.978-.228-1.771.799-1.308 1.684 1.365 2.609 2.309 4.864.97 7.331L31.355 18.4a1.176 1.176 0 00-1.763-.08c-2.071 2.151-5.546 6.542-5.546 11.786 0 1.429.185 2.799.55 4.09l5.09-1.015zm1.404 7.946h11.74V53H31.09V41.126zm-2.348-1.173c0-.647.525-1.171 1.174-1.171h1.508l-2.057-3.149-11.376 2.27-.982 7.842a1.17 1.17 0 00.244.872l4.696 5.937c.312.394.841.546 1.316.378l5.477-1.945V39.953z" fill="#9B51E0"/><path d="M56.78 42.476l-5.265-7.358-9.394 1.965-.91 1.699h2.794c.649 0 1.174.525 1.174 1.172v11.61l1.655 1.21c.475.347 1.136.29 1.543-.136l8.298-8.672a1.17 1.17 0 00.106-1.49zm-19.847-12.56c-1.517 1.578-3.845 4.522-3.918 7.01l1.212 1.856h4.321l1.76-3.287c.092-.17.224-.313.382-.418-.84-2.11-2.697-4.124-3.757-5.161z" fill="#9B51E0"/></symbol><symbol id="why3" viewBox="0 0 74 74" fill="none"><path d="M25.429 34.212c0-1.519.255-3.078.753-4.653-3.633-1.377-7.648-1.547-10.26-1.466l10.046 10.046a15.093 15.093 0 01-.54-3.927zm22.603 3.928L58.08 28.092c-2.612-.082-6.627.09-10.26 1.466.498 1.575.753 3.134.753 4.653 0 1.285-.182 2.6-.54 3.927zM14.016 30c-.12 3.913.325 10.971 4.53 15.177 4.099 4.098 10.874 4.629 14.84 4.542C32.606 48.964 14.016 30 14.016 30zm45.968 0S41.397 48.96 40.618 49.716c3.97.083 10.75-.453 14.836-4.54 4.205-4.205 4.65-11.263 4.53-15.176zm-14.109 4.212c0-5.964-4.676-11.263-7.527-13.94v27.551l3.433-3.433c2.147-2.77 4.094-6.34 4.094-10.178zm-17.751 0c0 3.828 1.928 7.383 4.062 10.145l3.466 3.466V20.277c-2.852 2.682-7.528 7.987-7.528 13.935z" fill="#9B51E0"/></symbol><symbol id="why4" viewBox="0 0 74 74" fill="none"><path d="M37 17c-11.028 0-20 8.972-20 20s8.972 20 20 20 20-8.972 20-20-8.972-20-20-20zm9.512 30.345a1.662 1.662 0 01-2.357 0l-8.333-8.333a1.66 1.66 0 01-.489-1.179V27a1.666 1.666 0 113.334 0v10.143l7.845 7.845a1.665 1.665 0 010 2.357z" fill="#9B51E0"/></symbol></svg>